<svg xmlns="http://www.w3.org/2000/svg" xmlns:xlink="http://www.w3.org/1999/xlink" width="1024" height="1024" viewBox="0 0 1024 1024">
  <!-- neon: pink neon speech bubble with a green ek$ tube on a dark brick wall -->
  <defs>
    <radialGradient id="spill" cx="0.5" cy="0.47" r="0.55">
      <stop offset="0" stop-color="#FF3FA4" stop-opacity="0.34"/>
      <stop offset="0.6" stop-color="#FF3FA4" stop-opacity="0.08"/>
      <stop offset="1" stop-color="#FF3FA4" stop-opacity="0"/>
    </radialGradient>
    <radialGradient id="vignette" cx="0.5" cy="0.5" r="0.75">
      <stop offset="0.55" stop-color="#000000" stop-opacity="0"/>
      <stop offset="1" stop-color="#000000" stop-opacity="0.55"/>
    </radialGradient>
    <filter id="g8" filterUnits="userSpaceOnUse" x="-300" y="-300" width="1624" height="1624"><feGaussianBlur stdDeviation="8"/></filter>
    <filter id="g30" filterUnits="userSpaceOnUse" x="-300" y="-300" width="1624" height="1624"><feGaussianBlur stdDeviation="30"/></filter>
  </defs>
  <rect width="1024" height="1024" fill="#110A1A"/>
  <g><rect x="-148" y="4" width="144" height="64" rx="5" fill="#1E1229"/><rect x="4" y="4" width="144" height="64" rx="5" fill="#25162F"/><rect x="156" y="4" width="144" height="64" rx="5" fill="#1B1026"/><rect x="308" y="4" width="144" height="64" rx="5" fill="#1E1229"/><rect x="460" y="4" width="144" height="64" rx="5" fill="#1E1229"/><rect x="612" y="4" width="144" height="64" rx="5" fill="#22142F"/><rect x="764" y="4" width="144" height="64" rx="5" fill="#22142F"/><rect x="916" y="4" width="144" height="64" rx="5" fill="#1E1229"/><rect x="1068" y="4" width="144" height="64" rx="5" fill="#1E1229"/><rect x="-72" y="76" width="144" height="64" rx="5" fill="#1E1229"/><rect x="80" y="76" width="144" height="64" rx="5" fill="#1B1026"/><rect x="232" y="76" width="144" height="64" rx="5" fill="#22142F"/><rect x="384" y="76" width="144" height="64" rx="5" fill="#1B1026"/><rect x="536" y="76" width="144" height="64" rx="5" fill="#1B1026"/><rect x="688" y="76" width="144" height="64" rx="5" fill="#1B1026"/><rect x="840" y="76" width="144" height="64" rx="5" fill="#1B1026"/><rect x="992" y="76" width="144" height="64" rx="5" fill="#1B1026"/><rect x="1144" y="76" width="144" height="64" rx="5" fill="#1E1229"/><rect x="-148" y="148" width="144" height="64" rx="5" fill="#1B1026"/><rect x="4" y="148" width="144" height="64" rx="5" fill="#22142F"/><rect x="156" y="148" width="144" height="64" rx="5" fill="#1B1026"/><rect x="308" y="148" width="144" height="64" rx="5" fill="#1E1229"/><rect x="460" y="148" width="144" height="64" rx="5" fill="#22142F"/><rect x="612" y="148" width="144" height="64" rx="5" fill="#25162F"/><rect x="764" y="148" width="144" height="64" rx="5" fill="#1B1026"/><rect x="916" y="148" width="144" height="64" rx="5" fill="#1B1026"/><rect x="1068" y="148" width="144" height="64" rx="5" fill="#1B1026"/><rect x="-72" y="220" width="144" height="64" rx="5" fill="#22142F"/><rect x="80" y="220" width="144" height="64" rx="5" fill="#25162F"/><rect x="232" y="220" width="144" height="64" rx="5" fill="#22142F"/><rect x="384" y="220" width="144" height="64" rx="5" fill="#22142F"/><rect x="536" y="220" width="144" height="64" rx="5" fill="#1B1026"/><rect x="688" y="220" width="144" height="64" rx="5" fill="#1B1026"/><rect x="840" y="220" width="144" height="64" rx="5" fill="#22142F"/><rect x="992" y="220" width="144" height="64" rx="5" fill="#22142F"/><rect x="1144" y="220" width="144" height="64" rx="5" fill="#25162F"/><rect x="-148" y="292" width="144" height="64" rx="5" fill="#1E1229"/><rect x="4" y="292" width="144" height="64" rx="5" fill="#22142F"/><rect x="156" y="292" width="144" height="64" rx="5" fill="#1B1026"/><rect x="308" y="292" width="144" height="64" rx="5" fill="#1E1229"/><rect x="460" y="292" width="144" height="64" rx="5" fill="#1E1229"/><rect x="612" y="292" width="144" height="64" rx="5" fill="#22142F"/><rect x="764" y="292" width="144" height="64" rx="5" fill="#22142F"/><rect x="916" y="292" width="144" height="64" rx="5" fill="#1B1026"/><rect x="1068" y="292" width="144" height="64" rx="5" fill="#1E1229"/><rect x="-72" y="364" width="144" height="64" rx="5" fill="#1E1229"/><rect x="80" y="364" width="144" height="64" rx="5" fill="#1B1026"/><rect x="232" y="364" width="144" height="64" rx="5" fill="#1B1026"/><rect x="384" y="364" width="144" height="64" rx="5" fill="#25162F"/><rect x="536" y="364" width="144" height="64" rx="5" fill="#25162F"/><rect x="688" y="364" width="144" height="64" rx="5" fill="#1B1026"/><rect x="840" y="364" width="144" height="64" rx="5" fill="#1E1229"/><rect x="992" y="364" width="144" height="64" rx="5" fill="#1E1229"/><rect x="1144" y="364" width="144" height="64" rx="5" fill="#22142F"/><rect x="-148" y="436" width="144" height="64" rx="5" fill="#25162F"/><rect x="4" y="436" width="144" height="64" rx="5" fill="#25162F"/><rect x="156" y="436" width="144" height="64" rx="5" fill="#1B1026"/><rect x="308" y="436" width="144" height="64" rx="5" fill="#1E1229"/><rect x="460" y="436" width="144" height="64" rx="5" fill="#25162F"/><rect x="612" y="436" width="144" height="64" rx="5" fill="#1E1229"/><rect x="764" y="436" width="144" height="64" rx="5" fill="#25162F"/><rect x="916" y="436" width="144" height="64" rx="5" fill="#25162F"/><rect x="1068" y="436" width="144" height="64" rx="5" fill="#22142F"/><rect x="-72" y="508" width="144" height="64" rx="5" fill="#1E1229"/><rect x="80" y="508" width="144" height="64" rx="5" fill="#25162F"/><rect x="232" y="508" width="144" height="64" rx="5" fill="#1E1229"/><rect x="384" y="508" width="144" height="64" rx="5" fill="#22142F"/><rect x="536" y="508" width="144" height="64" rx="5" fill="#25162F"/><rect x="688" y="508" width="144" height="64" rx="5" fill="#25162F"/><rect x="840" y="508" width="144" height="64" rx="5" fill="#1E1229"/><rect x="992" y="508" width="144" height="64" rx="5" fill="#25162F"/><rect x="1144" y="508" width="144" height="64" rx="5" fill="#22142F"/><rect x="-148" y="580" width="144" height="64" rx="5" fill="#1B1026"/><rect x="4" y="580" width="144" height="64" rx="5" fill="#25162F"/><rect x="156" y="580" width="144" height="64" rx="5" fill="#1B1026"/><rect x="308" y="580" width="144" height="64" rx="5" fill="#25162F"/><rect x="460" y="580" width="144" height="64" rx="5" fill="#1B1026"/><rect x="612" y="580" width="144" height="64" rx="5" fill="#1E1229"/><rect x="764" y="580" width="144" height="64" rx="5" fill="#1B1026"/><rect x="916" y="580" width="144" height="64" rx="5" fill="#22142F"/><rect x="1068" y="580" width="144" height="64" rx="5" fill="#1E1229"/><rect x="-72" y="652" width="144" height="64" rx="5" fill="#22142F"/><rect x="80" y="652" width="144" height="64" rx="5" fill="#1E1229"/><rect x="232" y="652" width="144" height="64" rx="5" fill="#1E1229"/><rect x="384" y="652" width="144" height="64" rx="5" fill="#25162F"/><rect x="536" y="652" width="144" height="64" rx="5" fill="#22142F"/><rect x="688" y="652" width="144" height="64" rx="5" fill="#22142F"/><rect x="840" y="652" width="144" height="64" rx="5" fill="#1B1026"/><rect x="992" y="652" width="144" height="64" rx="5" fill="#25162F"/><rect x="1144" y="652" width="144" height="64" rx="5" fill="#1E1229"/><rect x="-148" y="724" width="144" height="64" rx="5" fill="#1B1026"/><rect x="4" y="724" width="144" height="64" rx="5" fill="#1E1229"/><rect x="156" y="724" width="144" height="64" rx="5" fill="#1E1229"/><rect x="308" y="724" width="144" height="64" rx="5" fill="#1B1026"/><rect x="460" y="724" width="144" height="64" rx="5" fill="#1B1026"/><rect x="612" y="724" width="144" height="64" rx="5" fill="#1B1026"/><rect x="764" y="724" width="144" height="64" rx="5" fill="#1B1026"/><rect x="916" y="724" width="144" height="64" rx="5" fill="#22142F"/><rect x="1068" y="724" width="144" height="64" rx="5" fill="#22142F"/><rect x="-72" y="796" width="144" height="64" rx="5" fill="#25162F"/><rect x="80" y="796" width="144" height="64" rx="5" fill="#22142F"/><rect x="232" y="796" width="144" height="64" rx="5" fill="#22142F"/><rect x="384" y="796" width="144" height="64" rx="5" fill="#22142F"/><rect x="536" y="796" width="144" height="64" rx="5" fill="#22142F"/><rect x="688" y="796" width="144" height="64" rx="5" fill="#25162F"/><rect x="840" y="796" width="144" height="64" rx="5" fill="#1E1229"/><rect x="992" y="796" width="144" height="64" rx="5" fill="#1B1026"/><rect x="1144" y="796" width="144" height="64" rx="5" fill="#1E1229"/><rect x="-148" y="868" width="144" height="64" rx="5" fill="#22142F"/><rect x="4" y="868" width="144" height="64" rx="5" fill="#1E1229"/><rect x="156" y="868" width="144" height="64" rx="5" fill="#22142F"/><rect x="308" y="868" width="144" height="64" rx="5" fill="#1E1229"/><rect x="460" y="868" width="144" height="64" rx="5" fill="#25162F"/><rect x="612" y="868" width="144" height="64" rx="5" fill="#1B1026"/><rect x="764" y="868" width="144" height="64" rx="5" fill="#22142F"/><rect x="916" y="868" width="144" height="64" rx="5" fill="#25162F"/><rect x="1068" y="868" width="144" height="64" rx="5" fill="#25162F"/><rect x="-72" y="940" width="144" height="64" rx="5" fill="#25162F"/><rect x="80" y="940" width="144" height="64" rx="5" fill="#25162F"/><rect x="232" y="940" width="144" height="64" rx="5" fill="#22142F"/><rect x="384" y="940" width="144" height="64" rx="5" fill="#1B1026"/><rect x="536" y="940" width="144" height="64" rx="5" fill="#1E1229"/><rect x="688" y="940" width="144" height="64" rx="5" fill="#22142F"/><rect x="840" y="940" width="144" height="64" rx="5" fill="#22142F"/><rect x="992" y="940" width="144" height="64" rx="5" fill="#1E1229"/><rect x="1144" y="940" width="144" height="64" rx="5" fill="#1E1229"/><rect x="-148" y="1012" width="144" height="64" rx="5" fill="#25162F"/><rect x="4" y="1012" width="144" height="64" rx="5" fill="#1B1026"/><rect x="156" y="1012" width="144" height="64" rx="5" fill="#1B1026"/><rect x="308" y="1012" width="144" height="64" rx="5" fill="#22142F"/><rect x="460" y="1012" width="144" height="64" rx="5" fill="#22142F"/><rect x="612" y="1012" width="144" height="64" rx="5" fill="#1E1229"/><rect x="764" y="1012" width="144" height="64" rx="5" fill="#1E1229"/><rect x="916" y="1012" width="144" height="64" rx="5" fill="#1B1026"/><rect x="1068" y="1012" width="144" height="64" rx="5" fill="#1B1026"/></g>
  <rect width="1024" height="1024" fill="url(#spill)"/>
  <rect width="1024" height="1024" fill="url(#vignette)"/>
    <g fill="none" stroke-linecap="round" stroke-linejoin="round">
      <path d="M326,236 H698 A130,130 0 0 1 828,366 V570 A130,130 0 0 1 698,700 H446 L292,820 L324,696 A130,130 0 0 1 196,570 V366 A130,130 0 0 1 326,236" stroke="#FF3D9A" stroke-width="60" opacity="0.55" filter="url(#g30)"/>
      <path d="M326,236 H698 A130,130 0 0 1 828,366 V570 A130,130 0 0 1 698,700 H446 L292,820 L324,696 A130,130 0 0 1 196,570 V366 A130,130 0 0 1 326,236" stroke="#FF3D9A" stroke-width="34" opacity="0.9" filter="url(#g8)"/>
      <path d="M326,236 H698 A130,130 0 0 1 828,366 V570 A130,130 0 0 1 698,700 H446 L292,820 L324,696 A130,130 0 0 1 196,570 V366 A130,130 0 0 1 326,236" stroke="#FF3D9A" stroke-width="26"/>
      <path d="M326,236 H698 A130,130 0 0 1 828,366 V570 A130,130 0 0 1 698,700 H446 L292,820 L324,696 A130,130 0 0 1 196,570 V366 A130,130 0 0 1 326,236" stroke="#FFD6EC" stroke-width="10"/>
    </g>
    <g fill="none" stroke-linecap="round" stroke-linejoin="round">
      <path d="M280,492 H424 A72,72 0 1 0 405.5,540.2 M486,324 V564 M578,430 L492,502 L584,564 M734,440 C716,410 630,406 630,456 C630,496 736,484 736,528 C736,584 646,584 626,548 M682,364 V400 M682,580 V616" stroke="#7CFF4F" stroke-width="58" opacity="0.55" filter="url(#g30)"/>
      <path d="M280,492 H424 A72,72 0 1 0 405.5,540.2 M486,324 V564 M578,430 L492,502 L584,564 M734,440 C716,410 630,406 630,456 C630,496 736,484 736,528 C736,584 646,584 626,548 M682,364 V400 M682,580 V616" stroke="#7CFF4F" stroke-width="32" opacity="0.9" filter="url(#g8)"/>
      <path d="M280,492 H424 A72,72 0 1 0 405.5,540.2 M486,324 V564 M578,430 L492,502 L584,564 M734,440 C716,410 630,406 630,456 C630,496 736,484 736,528 C736,584 646,584 626,548 M682,364 V400 M682,580 V616" stroke="#7CFF4F" stroke-width="24"/>
      <path d="M280,492 H424 A72,72 0 1 0 405.5,540.2 M486,324 V564 M578,430 L492,502 L584,564 M734,440 C716,410 630,406 630,456 C630,496 736,484 736,528 C736,584 646,584 626,548 M682,364 V400 M682,580 V616" stroke="#EFFFE0" stroke-width="9"/>
    </g>
</svg>
